<svg width="140" height="72" viewBox="0 0 140 72" fill="none" xmlns="http://www.w3.org/2000/svg">
<path d="M138 36.4646C138 45.1169 131.037 53.472 118.593 59.7832C106.26 66.0377 89.0828 69.9646 70 69.9646C50.9172 69.9646 33.7399 66.0377 21.4071 59.7832C8.96262 53.472 2 45.1169 2 36.4646C2 27.8123 8.96262 19.4572 21.4071 13.146C33.7399 6.89154 50.9172 2.9646 70 2.9646C89.0828 2.9646 106.26 6.89154 118.593 13.146C131.037 19.4572 138 27.8123 138 36.4646Z" fill="white" stroke="#664545" stroke-width="4"/>
<path d="M56.5709 33.252C53.9911 31.4904 51.4271 29.7385 48.8604 27.9901C48.7348 27.9045 48.688 27.8148 48.6826 27.6683C48.6139 25.7746 48.582 23.8793 48.4513 21.9878C48.242 18.9572 47.7322 15.9651 46.698 13.057C46.6767 12.9971 46.6643 12.9346 46.6398 12.8439C47.1044 12.7542 47.553 12.6662 48.0023 12.5811C52.3461 11.7588 56.7362 11.1959 61.1652 10.8905C63.9322 10.6997 66.708 10.5817 69.4837 10.4923C73.8061 10.353 78.1349 10.4486 82.4611 10.6807C85.4295 10.84 88.3949 11.0892 91.3617 11.2987C91.4284 11.3034 91.4947 11.3146 91.5671 11.3624C91.1234 11.4243 90.6798 11.4872 90.2359 11.5481C85.7312 12.1668 81.2645 12.9529 76.8506 13.971C72.6672 14.936 68.5611 16.1242 64.565 17.6125C62.7445 18.2906 60.9637 19.0594 59.169 19.7956C59.096 19.8256 59.0079 19.9532 59.0226 20.018C59.306 21.264 59.6036 22.5075 59.8995 23.7513C59.9047 23.7733 59.9244 23.7926 59.9533 23.8385C60.3662 23.6746 60.7794 23.5112 61.1921 23.3466C64.8933 21.8705 68.6286 20.4761 72.4597 19.3069C75.39 18.4126 78.3592 17.6496 81.3922 17.1008C84.0305 16.6235 86.6934 16.3025 89.3907 16.2189C90.0762 16.1976 90.7629 16.197 91.4491 16.1881C91.5327 16.187 91.6166 16.1934 91.7325 16.1975C91.6695 16.425 91.6172 16.6266 91.5577 16.8262C91.2569 17.8345 91.1632 18.878 91.0539 19.9185C91.0019 20.4141 91.0076 20.4089 90.5048 20.4642C88.33 20.7036 86.1485 20.9063 83.9831 21.1992C81.449 21.5419 78.97 22.1202 76.5228 22.8021C73.698 23.5893 70.9497 24.5635 68.26 25.6821C65.9065 26.6608 63.617 27.7564 61.3488 28.893C61.1718 28.9817 61.1107 29.0747 61.1452 29.2712C61.3121 30.2211 61.4618 31.1734 61.6191 32.1246C61.6306 32.1942 61.6541 32.2623 61.6846 32.3797C70.4248 27.2073 80.0522 24.7399 90.3684 24.2513C90.3743 24.3237 90.3855 24.3864 90.3835 24.4484C90.3567 25.252 90.3215 26.0553 90.305 26.8594C90.3013 27.0398 90.2066 27.0598 90.0593 27.0871C87.7635 27.5125 85.4567 27.8965 83.1771 28.3839C80.118 29.038 77.1449 29.9582 74.217 30.9971C69.9181 32.5225 65.8002 34.3946 61.8541 36.5921C61.6728 36.6931 61.5621 36.668 61.4024 36.5581C59.8 35.4555 58.1923 34.36 56.5709 33.252Z" fill="#664545"/>
<path d="M96.2495 26.4817C97.3845 27.1477 98.316 27.9385 99.0065 28.8747C100.415 30.7842 100.451 32.7613 99.4591 34.7807C98.6263 36.4756 97.1786 37.8791 95.4281 39.1276C93.07 40.8095 90.303 42.0484 87.3169 43.0408C84.6589 43.9241 81.8936 44.5667 79.0493 45.0395C76.1314 45.5244 73.1827 45.848 70.2005 45.9573C66.4121 46.0961 62.6474 45.9297 58.931 45.3818C55.3516 44.8542 51.949 43.9879 48.8767 42.5357C46.4798 41.4028 44.4609 39.998 43.1244 38.1297C42.3884 37.1008 41.9282 36.0082 41.8408 34.845C41.6847 32.7695 42.5744 30.916 44.2475 29.2316C44.2653 29.2294 44.267 29.2304 44.267 29.2304C44.1334 29.5705 43.9908 29.909 43.8679 30.2511C43.467 31.3662 43.3319 32.4943 43.5912 33.632C43.847 34.7544 44.4702 35.7652 45.4146 36.6678C46.8385 38.0285 48.7188 38.9689 50.8027 39.7168C53.059 40.5266 55.4534 41.0418 57.911 41.4193C59.9684 41.7354 62.0513 41.9194 64.1503 42.0229C67.136 42.1702 70.1218 42.1465 73.1044 41.9462C75.0839 41.8133 77.0525 41.6139 79.0051 41.3268C81.3625 40.9803 83.6828 40.5382 85.9377 39.9215C88.2601 39.2863 90.4917 38.5171 92.5122 37.454C94.2906 36.5182 95.8396 35.4251 96.8592 33.9866C97.8843 32.5404 98.1347 31.0222 97.707 29.4397C97.4292 28.4117 96.8927 27.4571 96.2228 26.5195C96.2365 26.4929 96.243 26.4873 96.2495 26.4817Z" fill="#664545"/>
<path d="M96.9989 24.9846C96.3676 24.7685 95.924 24.4432 95.668 24.0088C95.4121 23.5743 95.2676 23.0508 95.2344 22.4383C95.2152 21.8189 95.2311 21.1307 95.2822 20.3735L95.6892 14.2697C95.7242 13.7961 95.8882 13.4013 96.1813 13.0854C96.4779 12.7592 96.8907 12.6172 97.4196 12.6595C97.9175 12.6912 98.3105 12.8604 98.5986 13.1671C98.8867 13.4738 99.0131 13.8813 98.9779 14.3895L98.6269 19.9749C98.5988 20.4625 98.6165 20.8327 98.6802 21.0858C98.7543 21.3423 98.9589 21.4875 99.2942 21.5214C99.6088 21.5481 99.8189 21.4408 99.9246 21.1995C100.03 20.9582 100.099 20.5887 100.131 20.0908L100.428 15.9785C100.471 15.415 100.639 14.9753 100.932 14.6594C101.239 14.3367 101.665 14.2053 102.211 14.265C102.771 14.3179 103.162 14.5269 103.384 14.8919C103.62 15.2501 103.717 15.6763 103.675 16.1706L103.237 21.553C103.198 22.1062 103.226 22.4973 103.321 22.7264C103.427 22.959 103.621 23.0833 103.905 23.0995C104.223 23.1158 104.417 23.0033 104.489 22.7617C104.563 22.5098 104.649 22.1403 104.746 21.6534C104.901 20.8971 105.022 20.2737 105.109 19.7832C105.206 19.2962 105.288 18.8904 105.352 18.5658C105.428 18.2447 105.51 17.9547 105.598 17.696C105.796 17.1165 106.136 16.6833 106.615 16.3966C107.098 16.0996 107.635 16.052 108.225 16.2539C108.825 16.4594 109.217 16.8015 109.4 17.2803C109.586 17.7488 109.57 18.3039 109.35 18.9455C109.208 19.3595 108.997 19.7729 108.717 20.1857C108.448 20.6021 108.187 20.9926 107.935 21.3573L106.04 24.0558C105.61 24.6715 105.202 25.22 104.818 25.7012C104.447 26.1755 104.047 26.5182 103.616 26.7293C103.189 26.9299 102.681 26.9293 102.091 26.7274C101.377 26.483 100.894 26.0692 100.643 25.486C100.391 24.9029 100.331 24.067 100.46 22.9784L100.352 22.9412C99.7975 23.8845 99.2736 24.5203 98.7797 24.8484C98.2859 25.1765 97.6923 25.2219 96.9989 24.9846Z" fill="#664545"/>
<path d="M108.76 29.0312C108.165 28.5905 107.901 28.0725 107.97 27.4773C108.044 26.8724 108.419 26.2603 109.095 25.6411L113.896 21.2252C114.337 20.8154 114.763 20.4909 115.175 20.2517C115.597 20.0176 116.028 19.8938 116.469 19.8804C116.92 19.8721 117.401 20.004 117.913 20.2762C118.685 20.687 119.152 21.2076 119.312 21.838C119.482 22.4735 119.497 23.2372 119.358 24.1292L118.367 30.571C118.231 31.4778 117.943 32.136 117.503 32.5458C117.076 32.9511 116.509 33.0274 115.801 32.7748C115.234 32.5599 114.804 32.2507 114.511 31.847C114.227 31.4484 114.162 31.0113 114.316 30.5356C114.412 30.215 114.531 29.9684 114.672 29.7958C114.823 29.6283 114.949 29.4969 115.049 29.4015C115.129 29.3204 115.178 29.2286 115.195 29.1263C115.227 29.0194 115.181 28.9326 115.055 28.8659L112.36 27.4331C112.235 27.3664 112.132 27.3736 112.052 27.4547C111.986 27.5314 111.947 27.6283 111.934 27.7454C111.911 27.8818 111.868 28.0569 111.804 28.2706C111.74 28.4843 111.606 28.7232 111.404 28.9873C111.096 29.3808 110.702 29.574 110.222 29.5669C109.743 29.5598 109.256 29.3812 108.76 29.0312ZM115.858 26.6913L116.36 23.9294C116.393 23.8225 116.397 23.7321 116.375 23.6581C116.367 23.5796 116.315 23.5147 116.218 23.4634C116.121 23.412 116.034 23.4025 115.954 23.4347C115.89 23.4625 115.818 23.517 115.738 23.5981L113.743 25.5667L115.858 26.6913Z" fill="#664545"/>
<path d="M120.24 35.9479C119.791 35.7195 119.495 35.3968 119.352 34.9799C119.208 34.563 119.243 34.145 119.457 33.7259L123.397 25.9923C123.616 25.5634 123.936 25.2723 124.358 25.119C124.789 24.9706 125.234 25.0131 125.692 25.2465C126.18 25.4948 126.485 25.8347 126.609 26.2661C126.748 26.6928 126.71 27.1157 126.497 27.5348L122.541 35.2976C122.328 35.7167 122 35.9857 121.559 36.1047C121.128 36.2286 120.688 36.1764 120.24 35.9479Z" fill="#664545"/>
<path d="M56.9165 63.3049C56.0347 63.3049 55.3689 63.071 54.919 62.6031C54.4872 62.1353 54.2712 61.5504 54.2712 60.8486V45.1931C54.2712 44.4193 54.4872 43.7805 54.919 43.2766C55.3689 42.7548 56.0347 42.4939 56.9165 42.4939C57.7082 42.4939 58.3201 42.7548 58.7519 43.2766C59.1838 43.7805 59.3998 44.4013 59.3998 45.1391V60.8486C59.3998 61.5504 59.1838 62.1353 58.7519 62.6031C58.3201 63.071 57.7082 63.3049 56.9165 63.3049ZM64.4934 63.3369C63.2454 63.3369 62.2481 62.9689 61.5014 62.2329C60.7654 61.4863 60.3974 60.4356 60.3974 59.0809C60.3974 58.2489 60.5681 57.5183 60.9094 56.8889C61.2508 56.2596 61.7254 55.7689 62.3334 55.4169C62.9521 55.0543 63.6721 54.8729 64.4934 54.8729C65.4108 54.8729 66.1734 55.0543 66.7814 55.4169C67.3894 55.7689 67.8428 56.2596 68.1414 56.8889C68.4508 57.5183 68.6054 58.2489 68.6054 59.0809C68.6054 60.4356 68.2641 61.4863 67.5814 62.2329C66.9094 62.9689 65.8801 63.3369 64.4934 63.3369ZM62.3014 58.8089C62.3014 59.1396 62.4668 59.3743 62.7974 59.5129C63.1281 59.6409 63.6934 59.7049 64.4934 59.7049C65.2934 59.7049 65.8588 59.6409 66.1894 59.5129C66.5201 59.3743 66.6854 59.1396 66.6854 58.8089C66.6854 58.4889 66.5201 58.2649 66.1894 58.1369C65.8588 58.0089 65.2934 57.9449 64.4934 57.9449C63.6934 57.9449 63.1281 58.0089 62.7974 58.1369C62.4668 58.2649 62.3014 58.4889 62.3014 58.8089ZM72.5168 63.3049C71.8981 63.3049 71.3915 63.1023 70.9968 62.6969C70.6128 62.2916 70.2608 61.6249 69.9408 60.6969L68.7248 57.0809C68.5861 56.6756 68.5808 56.2649 68.7088 55.8489C68.8368 55.4329 69.1301 55.1503 69.5888 55.0009C70.0155 54.8516 70.4048 54.8623 70.7568 55.0329C71.1088 55.2036 71.3541 55.4969 71.4928 55.9129L72.8048 59.8329C72.9541 60.2916 73.1088 60.6009 73.2688 60.7609C73.4288 60.9103 73.6421 60.9423 73.9088 60.8569C74.1328 60.7823 74.2715 60.6223 74.3248 60.3769C74.3888 60.1209 74.3141 59.6836 74.1008 59.0649L73.4448 57.0809C73.3061 56.6649 73.3008 56.2543 73.4288 55.8489C73.5675 55.4329 73.8661 55.1503 74.3248 55.0009C74.7515 54.8516 75.1408 54.8623 75.4928 55.0329C75.8448 55.2036 76.0901 55.4969 76.2288 55.9129L77.5728 60.0089C77.6581 60.2543 77.7915 60.4783 77.9728 60.6809C78.1541 60.8836 78.3888 60.9423 78.6768 60.8569C78.9008 60.7823 79.0448 60.6329 79.1088 60.4089C79.1835 60.1849 79.1728 59.9236 79.0768 59.6249C78.9488 59.2196 78.8048 58.8996 78.6448 58.6649C78.4955 58.4303 78.3461 58.2276 78.1968 58.0569C78.0581 57.8863 77.9408 57.7049 77.8448 57.5129C77.7595 57.3209 77.7061 57.0596 77.6848 56.7289C77.6635 56.3876 77.7328 56.0889 77.8928 55.8329C78.0635 55.5663 78.2875 55.3583 78.5648 55.2089C78.8528 55.0596 79.1675 54.9849 79.5088 54.9849C80.0315 54.9849 80.4528 55.1609 80.7728 55.5129C81.1035 55.8543 81.2688 56.2596 81.2688 56.7289C81.2688 56.8996 81.2421 57.1236 81.1888 57.4009C81.1355 57.6783 81.0661 57.9343 80.9808 58.1689L80.3088 59.9129C80.1701 60.2969 80.0101 60.6916 79.8288 61.0969C79.6581 61.4916 79.4555 61.8543 79.2208 62.1849C78.9968 62.5156 78.7355 62.7876 78.4368 63.0009C78.1381 63.2036 77.7915 63.3049 77.3968 63.3049C76.7141 63.3049 76.1648 63.1289 75.7488 62.7769C75.3435 62.4249 75.0235 61.8436 74.7888 61.0329H74.6288C74.4901 61.6943 74.2608 62.2383 73.9408 62.6649C73.6208 63.0916 73.1461 63.3049 72.5168 63.3049ZM83.4822 63.3049C83.0128 63.3049 82.6342 63.1663 82.3462 62.8889C82.0688 62.6009 81.9302 62.2489 81.9302 61.8329V56.5369C81.9302 56.0889 82.0635 55.7103 82.3302 55.4009C82.5968 55.0916 82.9808 54.9369 83.4822 54.9369C83.9728 54.9369 84.3462 55.0916 84.6022 55.4009C84.8582 55.7103 84.9862 56.0996 84.9862 56.5689V57.3689H85.2742C85.2742 56.7609 85.3808 56.2809 85.5942 55.9289C85.8182 55.5769 86.1008 55.3263 86.4422 55.1769C86.7835 55.0169 87.1248 54.9369 87.4662 54.9369C88.2875 54.9369 88.8902 55.2356 89.2742 55.8329C89.6582 56.4196 89.8502 57.2569 89.8502 58.3449V61.8329C89.8502 62.2489 89.7115 62.6009 89.4342 62.8889C89.1568 63.1663 88.7835 63.3049 88.3142 63.3049C87.8342 63.3049 87.4502 63.1663 87.1622 62.8889C86.8848 62.6009 86.7462 62.2489 86.7462 61.8329V59.0009C86.7462 58.6169 86.6715 58.3183 86.5222 58.1049C86.3835 57.8916 86.1755 57.7849 85.8982 57.7849C85.5782 57.7849 85.3435 57.9023 85.1942 58.1369C85.0555 58.3716 84.9862 58.6703 84.9862 59.0329V61.8329C84.9862 62.2489 84.8528 62.6009 84.5862 62.8889C84.3195 63.1663 83.9515 63.3049 83.4822 63.3049Z" fill="#664545"/>
<path d="M19.3515 36.3217C18.3575 36.7233 17.378 36.8831 16.4129 36.8011C15.4538 36.7049 14.5822 36.3433 13.798 35.7164C13.0138 35.0894 12.382 34.1826 11.9026 32.996C11.4232 31.8094 11.2375 30.6928 11.3456 29.6464C11.4638 28.5958 11.8313 27.6805 12.4482 26.9004C13.071 26.1061 13.8997 25.4999 14.9342 25.082C16.1309 24.5984 17.1164 24.3949 17.8906 24.4715C18.6647 24.548 19.185 24.9159 19.4513 25.5751C19.6562 26.0822 19.6893 26.5584 19.5507 27.0037C19.408 27.4389 19.0983 27.7528 18.6217 27.9454C18.216 28.1093 17.8 28.2184 17.3736 28.2727C16.9533 28.3127 16.4895 28.4352 15.9824 28.6401C15.3334 28.9023 14.897 29.2969 14.6734 29.8238C14.4497 30.3506 14.4608 30.9183 14.7067 31.5268C14.9484 32.1252 15.3389 32.5514 15.8781 32.8055C16.4131 33.0494 17.0052 33.0403 17.6543 32.778C17.9991 32.6387 18.3033 32.4863 18.5667 32.3209C18.8363 32.1412 19.0957 31.9656 19.3449 31.7941C19.6043 31.6185 19.8963 31.4652 20.2208 31.334C20.7583 31.1169 21.2256 31.1346 21.6225 31.3871C22.0154 31.6295 22.3163 32.0093 22.5253 32.5265C22.7343 33.0438 22.7167 33.5405 22.4726 34.0166C22.2244 34.4826 21.8196 34.9116 21.2583 35.3035C20.7072 35.6914 20.0715 36.0308 19.3515 36.3217Z" fill="#664545"/>
<path d="M25.6428 33.2094C24.9255 33.395 24.3571 33.2738 23.9378 32.8458C23.5142 32.4077 23.2745 31.7311 23.2188 30.816L22.8083 24.306C22.7673 23.7054 22.7835 23.1698 22.8569 22.6989C22.9405 22.2238 23.1157 21.8107 23.3826 21.4598C23.6596 21.1045 24.0649 20.8136 24.5986 20.5871C25.4041 20.2452 26.1023 20.2103 26.6931 20.4824C27.294 20.7502 27.897 21.219 28.5023 21.889L32.8849 26.7129C33.5045 27.3887 33.8348 28.0269 33.8758 28.6274C33.9226 29.2135 33.625 29.7023 32.9831 30.0936C32.4592 30.3992 31.9481 30.5389 31.4498 30.5127C30.9616 30.4823 30.581 30.2576 30.3081 29.8387C30.1195 29.5623 30.0026 29.3149 29.9574 29.0964C29.9222 28.8736 29.8992 28.6933 29.8882 28.5554C29.8756 28.4419 29.835 28.3462 29.7663 28.2684C29.7035 28.1763 29.6066 28.158 29.4757 28.2135L26.6665 29.406C26.5356 29.4616 26.4764 29.5461 26.4889 29.6596C26.5072 29.7588 26.5579 29.8501 26.6409 29.9337C26.7325 30.0375 26.8412 30.1815 26.9669 30.3658C27.0927 30.55 27.1945 30.8039 27.2724 31.1273C27.3841 31.6146 27.2864 32.0423 26.9792 32.4104C26.672 32.7784 26.2265 33.0448 25.6428 33.2094ZM28.2912 26.2209L26.4608 24.0924C26.3979 24.0003 26.3306 23.9397 26.2589 23.9107C26.193 23.8674 26.1097 23.8671 26.009 23.9099C25.9083 23.9526 25.8456 24.0149 25.8209 24.0967C25.802 24.1641 25.7988 24.2546 25.8114 24.3681L26.0861 27.1569L28.2912 26.2209Z" fill="#664545"/>
<path d="M37.721 20.6352L38.8138 16.5166C39.0063 15.7796 39.3301 15.2856 39.7852 15.0344C40.2365 14.773 40.7141 14.7236 41.2181 14.8861C41.5469 14.9854 41.8134 15.1839 42.0175 15.4814C42.2217 15.7789 42.3258 16.1369 42.3299 16.5556C42.3341 16.9743 42.1973 17.422 41.9197 17.8989L40.1246 20.9308L40.2449 21.2537C40.5729 21.1316 40.9726 21.0294 41.4439 20.9473C41.9152 20.8652 42.3837 20.9009 42.8494 21.0544C43.2166 21.1628 43.5542 21.3172 43.8622 21.5176C44.1806 21.7143 44.4776 21.9947 44.7532 22.3589C45.0251 22.7129 45.2755 23.1975 45.5045 23.8125C45.6915 24.3148 45.7039 24.7713 45.5416 25.1818C45.3858 25.5783 45.0413 25.8758 44.5083 26.0743C43.9752 26.2728 43.5099 26.2768 43.1121 26.0864C42.7209 25.8819 42.4317 25.5285 42.2447 25.0262C42.0348 24.4624 41.7765 24.0508 41.4699 23.7915C41.1696 23.5181 40.8423 23.3598 40.4877 23.3168C40.1332 23.2737 39.7817 23.317 39.4331 23.4468L38.6797 23.7273L39.5785 26.1414C39.7426 26.5822 39.7244 27.0034 39.5237 27.4049C39.3333 27.8026 39.0023 28.0892 38.5307 28.2648C38.0592 28.4404 37.6162 28.4419 37.2018 28.2694C36.7977 28.093 36.5136 27.7844 36.3494 27.3437L33.321 19.2095C33.153 18.7584 33.1604 18.3238 33.3432 17.9056C33.526 17.4874 33.8583 17.1886 34.3401 17.0092C34.8526 16.8184 35.3046 16.8252 35.6958 17.0297C36.0935 17.2201 36.3745 17.5357 36.5386 17.9765L37.5404 20.6674L37.721 20.6352Z" fill="#664545"/>
</svg>
